<svg width="56" height="49" viewBox="0 0 56 49" fill="none" xmlns="http://www.w3.org/2000/svg">
<g clip-path="url(#clip0_298_18)">
<path d="M22.7394 0H3.73333C1.67147 0 0 1.68754 0 3.76923V22.958C0 25.0397 1.67147 26.7272 3.73333 26.7272H22.7394C24.8012 26.7272 26.4727 25.0397 26.4727 22.958V3.76923C26.4727 1.68754 24.8012 0 22.7394 0Z" fill="#FFFBFB"/>
<path d="M22.7394 31.1817H3.73333C1.67147 31.1817 0 32.8692 0 34.9509V45.2306C0 47.3123 1.67147 48.9999 3.73333 48.9999H22.7394C24.8012 48.9999 26.4727 47.3123 26.4727 45.2306V34.9509C26.4727 32.8692 24.8012 31.1817 22.7394 31.1817Z" fill="#FFFBFB"/>
<path d="M51.4181 17.8182H34.6181C32.5562 17.8182 30.8848 19.5057 30.8848 21.5874V45.2309C30.8848 47.3126 32.5562 49.0001 34.6181 49.0001H51.4181C53.48 49.0001 55.1514 47.3126 55.1514 45.2309V21.5874C55.1514 19.5057 53.48 17.8182 51.4181 17.8182Z" fill="#FFFBFB"/>
<path d="M51.4181 2.22723H34.6181C32.5562 2.22723 30.8848 3.91478 30.8848 5.99646V9.59437C30.8848 11.6761 32.5562 13.3636 34.6181 13.3636H51.4181C53.48 13.3636 55.1514 11.6761 55.1514 9.59437V5.99646C55.1514 3.91478 53.48 2.22723 51.4181 2.22723Z" fill="#FFFBFB"/>
</g>
<defs>
<clipPath id="clip0_298_18">
<rect width="56" height="49" fill="white"/>
</clipPath>
</defs>
</svg>
